<svg width="440" height="364" viewBox="0 0 440 364" fill="none" xmlns="http://www.w3.org/2000/svg">
    <g clip-path="url(#clip0_49_228)">
        <path d="M320.9 0.5L365 0.6L364.4 2.8L363.7 4.7L362.9 6.7L361.8 8.7L344.9 36.6L319.8 77.9L309.5 94.7L308 97.6L331.9 87.4L334 86.5L337 85L339.8 83.9L341.7 83L343.2 82L344.3 80.8L345.2 79.7L346.1 78.3L352.9 66.8L367.5 42.8L378.5 24.2L383 16.8L388.8 7.4L390 5.6L391.5 2.9L392.5 2.1L393.9 1.2L395.4 0.6L397.2 0.2L399.1 0L440 0.6L439 3.5L437.8 6.5L436.4 9.5L434.6 12.7L420.2 36.6L393 81.5L390.2 86.4L386.4 93.5L384.5 96.7L383 99.1L381.5 101.1L380 103L378.6 104.6L376.2 106.9L373.7 108.8L371 110.6L367.9 112.1L364.5 113.5L358.6 115.5L353.7 117.3L314 133.6L332.1 164.3L333.3 166L335.6 169L336.4 170.7L336.7 171.7L336.8 172.8L336.5 174.6L333.7 180L330.5 185.3L306.5 224.2L289.3 252.8L263.1 295.5L248 319.6L236.3 339L229.8 349.7L224.4 358.4L221 363.6L219.5 363L218.1 362L216.8 360.8L215.7 359.2L213.5 355.2L209.4 348L205 340.6L158.4 265.1L135.3 227.2L121.1 204L104.2 176L63.3 108.7L49.4 85.4L40.4 71.1L39.6 69.7L39.2 68.6L39 67.5V65.6L48.7 65.1L61.7 64.6L74.5 63.9L77.5 63.8H79.8L82.3 64.1L83.4 64.3L84.3 64.7L85.4 65.3L86.6 66.1L88 67.1L88.5 67.8L90.4 70.3L92.1 73.2L93.6 76.1L95.8 81L97.8 84.7L131.6 140.3L145.7 164.1L158.6 185L173.7 210.1L188.2 233.2L213.2 274.7L218.2 282.4L218.7 283.2L218.9 283.8L219 284.5V285.6H221L221.8 283.5L222.9 281L224.4 278.3L226.2 275.2L239.3 253.7L255.3 227.6L273.9 197L283.6 181.9L285.2 179.3L285.9 177.8L286.5 176.2L286.9 174.7L287.1 173.1V172.6L285.8 169.5L284.6 167L283 164.2L276 152.6L273.9 154.8L272.1 157.1L270.1 160.2L235.6 217.4L225.1 234.9L216.3 249.7L214.9 251.9L213 254.6H210L208.9 253.3L208 252L198.2 235.9L191.7 225.5L190.2 223L189.1 220.8L188.5 218.8L188.1 216.7L188 214.6L189 212.6L190.3 210.3L198.9 197L201.8 192.3L222.8 157.1L273.2 74.1L291.2 44.9L307.3 18.6L315.1 6.2L317.6 2.4L318.3 1.5L319 0.9L319.7 0.6L320.7 0.5H320.9Z" fill="#3B82F6"/>
        <path d="M0 0.600098H307L305.9 3.8001L304.9 6.3001L303.7 8.7001L302.4 11.1001L294.4 24.1001L289.4 31.9001L288.7 33.1001L287 36L286 37.5L284.5 39.5L283 41L279.2 42.4001L275.2 42.9001L270.8 43.2001L266 43.4001L259.6 43.3001L246.9 42.8001L241.7 42.7001L148 42.6001L166.9 74.5001L194.9 121L206.6 140.4L209.5 144.8L213.9 151.1L214.6 152.9L214.8 153.6V154.2L214.3 156.7L212.9 159.6L211.5 162.3L209 166.6L201.8 178.3L197 185.9L192 193.6L189.7 191.3L187.7 189.1L185.9 186.7L184.1 184.1L170.6 161.1L156.3 137.9L130.2 94.8001L117.4 73.7001L102.6 49.4001L100.9 46.2001L99 42.6001L28.3 43.1001L26.5 42.8001L25 42.3001L23.6 41.5001L22.2 40.1001L21 38.6001L18.8 35.0001L6 13.0001L4.1 9.9001L0.7 4.7001L0.3 3.9001L0.1 3.2001L0 2.4001V0.900098V0.600098Z" fill="#3B82F6"/>
    </g>
    <defs>
        <clipPath id="clip0_49_228">
            <rect width="440" height="364" fill="white"/>
        </clipPath>
    </defs>
</svg>
